GIL12_xslow1_ik
nRows=3
nColumns=375

# SIMM Motion File Header:
name GIL12_xslow1_ik
datacolumns 375
datarows 3
otherdata 1
range 0.58333000 0.60000000
endheader
time	pelvis_tx	pelvis_ty	pelvis_tz	pelvis_tilt	pelvis_list	pelvis_rotation	hip_flexion_r	hip_adduction_r	hip_rotation_r	knee_angle_r	ankle_angle_r	hip_flexion_l	hip_adduction_l	hip_rotation_l	knee_angle_l	ankle_angle_l	lumbar_extension	lumbar_bending	lumbar_rotation	subtalar_angle_r	mtp_angle_r	subtalar_angle_l	mtp_angle_l	asis_r_px	asis_r_py	asis_r_pz	asis_l_px	asis_l_py	asis_l_pz	midasis_px	midasis_py	midasis_pz	psis_r_px	psis_r_py	psis_r_pz	psis_l_px	psis_l_py	psis_l_pz	hip_r_px	hip_r_py	hip_r_pz	hip_l_px	hip_l_py	hip_l_pz	midhip_px	midhip_py	midhip_pz	epicondLat_r_px	epicondLat_r_py	epicondLat_r_pz	epicondMed_r_px	epicondMed_r_py	epicondMed_r_pz	thighwand_r_px	thighwand_r_py	thighwand_r_pz	upperleg1_r_px	upperleg1_r_py	upperleg1_r_pz	upperleg2_r_px	upperleg2_r_py	upperleg2_r_pz	malleolusLat_r_px	malleolusLat_r_py	malleolusLat_r_pz	malleolusMedv_r_px	malleolusMedv_r_py	malleolusMedv_r_pz	shankwand_r_px	shankwand_r_py	shankwand_r_pz	lowerleg1_r_px	lowerleg1_r_py	lowerleg1_r_pz	knee_r_px	knee_r_py	knee_r_pz	ankle_r_px	ankle_r_py	ankle_r_pz	toe_r_px	toe_r_py	toe_r_pz	epicondLat_l_px	epicondLat_l_py	epicondLat_l_pz	epicondMed_l_px	epicondMed_l_py	epicondMed_l_pz	thighwand_l_px	thighwand_l_py	thighwand_l_pz	upperleg1_l_px	upperleg1_l_py	upperleg1_l_pz	upperleg2_l_px	upperleg2_l_py	upperleg2_l_pz	malleolusLat_l_px	malleolusLat_l_py	malleolusLat_l_pz	malleolusMedv_l_px	malleolusMedv_l_py	malleolusMedv_l_pz	shankwand_l_px	shankwand_l_py	shankwand_l_pz	lowerleg1_l_px	lowerleg1_l_py	lowerleg1_l_pz	knee_l_px	knee_l_py	knee_l_pz	ankle_l_px	ankle_l_py	ankle_l_pz	toe_l_px	toe_l_py	toe_l_pz	subclavicle_r_px	subclavicle_r_py	subclavicle_r_pz	subclavicle_l_px	subclavicle_l_py	subclavicle_l_pz	neck_px	neck_py	neck_pz	sternalnotch_px	sternalnotch_py	sternalnotch_pz	xyphoidprocess_px	xyphoidprocess_py	xyphoidprocess_pz	midhip_tx	midhip_ty	midhip_tz	hip_r_tx	hip_r_ty	hip_r_tz	hip_l_tx	hip_l_ty	hip_l_tz	knee_r_tx	knee_r_ty	knee_r_tz	knee_l_tx	knee_l_ty	knee_l_tz	ankle_r_tx	ankle_r_ty	ankle_r_tz	ankle_l_tx	ankle_l_ty	ankle_l_tz	midasis_tx	midasis_ty	midasis_tz	asis_r_tx	asis_r_ty	asis_r_tz	asis_l_tx	asis_l_ty	asis_l_tz	psis_r_tx	psis_r_ty	psis_r_tz	psis_l_tx	psis_l_ty	psis_l_tz	epicondLat_r_tx	epicondLat_r_ty	epicondLat_r_tz	epicondLat_l_tx	epicondLat_l_ty	epicondLat_l_tz	epicondMed_r_tx	epicondMed_r_ty	epicondMed_r_tz	epicondMed_l_tx	epicondMed_l_ty	epicondMed_l_tz	malleolusLat_r_tx	malleolusLat_r_ty	malleolusLat_r_tz	malleolusLat_l_tx	malleolusLat_l_ty	malleolusLat_l_tz	malleolusMedv_r_tx	malleolusMedv_r_ty	malleolusMedv_r_tz	malleolusMedv_l_tx	malleolusMedv_l_ty	malleolusMedv_l_tz	neck_tx	neck_ty	neck_tz	subclavicle_r_tx	subclavicle_r_ty	subclavicle_r_tz	subclavicle_l_tx	subclavicle_l_ty	subclavicle_l_tz	sternalnotch_tx	sternalnotch_ty	sternalnotch_tz	xyphoidprocess_tx	xyphoidprocess_ty	xyphoidprocess_tz	thighwand_r_tx	thighwand_r_ty	thighwand_r_tz	thighwand_l_tx	thighwand_l_ty	thighwand_l_tz	upperleg1_r_tx	upperleg1_r_ty	upperleg1_r_tz	upperleg1_l_tx	upperleg1_l_ty	upperleg1_l_tz	upperleg2_r_tx	upperleg2_r_ty	upperleg2_r_tz	upperleg2_l_tx	upperleg2_l_ty	upperleg2_l_tz	shankwand_r_tx	shankwand_r_ty	shankwand_r_tz	shankwand_l_tx	shankwand_l_ty	shankwand_l_tz	lowerleg1_r_tx	lowerleg1_r_ty	lowerleg1_r_tz	lowerleg1_l_tx	lowerleg1_l_ty	lowerleg1_l_tz	toe_r_tx	toe_r_ty	toe_r_tz	toe_l_tx	toe_l_ty	toe_l_tz	ground_force_vx	ground_force_vy	ground_force_vz	ground_force_px	ground_force_py	ground_force_pz	ground_force_vx	ground_force_vy	ground_force_vz	ground_force_px	ground_force_py	ground_force_pz	ground_torque_x	ground_torque_y	ground_torque_z	ground_torque_x	ground_torque_y	ground_torque_z	ground_marker_px	ground_marker_py	ground_marker_pz	ground_marker_px	ground_marker_py	ground_marker_pz	ground_marker_px	ground_marker_py	ground_marker_pz	ground_marker_px	ground_marker_py	ground_marker_pz	ground_marker_px	ground_marker_py	ground_marker_pz	ground_marker_px	ground_marker_py	ground_marker_pz	ground_marker_px	ground_marker_py	ground_marker_pz	ground_marker_px	ground_marker_py	ground_marker_pz	ground_marker_px	ground_marker_py	ground_marker_pz	ground_marker_px	ground_marker_py	ground_marker_pz	ground_marker_px	ground_marker_py	ground_marker_pz	ground_marker_px	ground_marker_py	ground_marker_pz	ground_marker_px	ground_marker_py	ground_marker_pz	ground_marker_px	ground_marker_py	ground_marker_pz	ground_marker_px	ground_marker_py	ground_marker_pz	ground_marker_px	ground_marker_py	ground_marker_pz	ground_marker_px	ground_marker_py	ground_marker_pz	ground_marker_px	ground_marker_py	ground_marker_pz	ground_marker_px	ground_marker_py	ground_marker_pz	ground_marker_px	ground_marker_py	ground_marker_pz	ground_marker_px	ground_marker_py	ground_marker_pz	ground_marker_px	ground_marker_py	ground_marker_pz	ground_marker_px	ground_marker_py	ground_marker_pz	ground_marker_px	ground_marker_py	ground_marker_pz	ground_marker_px	ground_marker_py	ground_marker_pz	ground_marker_px	ground_marker_py	ground_marker_pz	ground_marker_px	ground_marker_py	ground_marker_pz	ground_marker_px	ground_marker_py	ground_marker_pz	ground_marker_px	ground_marker_py	ground_marker_pz	ground_marker_px	ground_marker_py	ground_marker_pz	ground_marker_px	ground_marker_py	ground_marker_pz	ground_marker_px	ground_marker_py	ground_marker_pz	ground_marker_px	ground_marker_py	ground_marker_pz	ground_marker_px	ground_marker_py	ground_marker_pz	ground_marker_px	ground_marker_py	ground_marker_pz	ground_marker_px	ground_marker_py	ground_marker_pz	ground_marker_px	ground_marker_py	ground_marker_pz
      0.58333000	      1.59620092	      0.69507660	     -0.18964252	     17.03216512	     -4.25429942	     -8.94636990	     19.09044782	     -1.02271127	     -2.39263340	     -2.71889621	     -5.21887798	    -19.62513593	      2.54403655	     -5.04338151	     -7.06868509	      9.14541902	    -29.08554279	     -5.48318525	      0.78936067	      0.00000000	      0.00000000	      0.00000000	      0.00000000	      1.69370433	      0.71034025	     -0.10873106	      1.72756834	      0.70715100	     -0.27982508	      1.60519221	      0.69794630	     -0.18816091	      1.56860548	      0.73871348	     -0.17853133	      1.58486588	      0.73628373	     -0.26223587	      1.55427524	      0.63897160	     -0.13764561	      1.57366636	      0.63617763	     -0.24991123	      1.56397080	      0.63757461	     -0.19377842	      1.77082805	      0.42099977	     -0.04511046	      1.79339257	      0.41603960	     -0.13583299	      1.84469399	      0.55773398	     -0.09983714	      1.74450634	      0.56530525	     -0.07827045	      1.77914996	      0.48540275	     -0.06675042	      1.88572000	      0.15507932	     -0.00532766	      1.91298134	      0.15753522	     -0.05997087	      1.85046891	      0.24656397	      0.04967620	      1.83421242	      0.28912572	     -0.02252669	      1.72755217	      0.39418191	     -0.09627528	      1.88440035	      0.15443724	     -0.05856816	      1.98251298	      0.17987531	     -0.00226047	      1.61515614	      0.31270884	     -0.29648369	      1.61564211	      0.31639327	     -0.20445559	      1.68662656	      0.37479163	     -0.35364967	      1.68895855	      0.44230663	     -0.27780681	      1.67573943	      0.36144871	     -0.25511047	      1.52511899	      0.03302928	     -0.27631470	      1.54169730	      0.02777750	     -0.21333701	      1.65656990	      0.11148841	     -0.22674454	      1.60912012	      0.18056166	     -0.24808534	      1.55623727	      0.33423419	     -0.23150931	      1.50693618	      0.04988336	     -0.21685680	      1.62238463	      0.00854126	     -0.26919498	      1.60710758	      1.01487709	     -0.18307193	      1.62205901	      1.01083073	     -0.27040913	      1.51405819	      1.01593155	     -0.24084834	      1.59405146	      1.01553337	     -0.22252657	      1.70477746	      0.92832635	     -0.20476283	      1.56954100	      0.63035200	     -0.19118900	      1.56328400	      0.64645800	     -0.13948900	      1.58186400	      0.63975500	     -0.25526100	      1.73581100	      0.40147500	     -0.09402800	      1.56313300	      0.34212000	     -0.22652600	      1.89058200	      0.15539800	     -0.04695100	      1.51071000	      0.05516100	     -0.22287500	      1.60282200	      0.71299400	     -0.19656700	      1.58893600	      0.71800300	     -0.11005000	      1.61670700	      0.70798600	     -0.28308300	      1.46196200	      0.70377800	     -0.16986200	      1.47456200	      0.69899100	     -0.25349800	      1.72668100	      0.40340400	     -0.04898400	      1.56639200	      0.33731500	     -0.27417300	      1.74135700	      0.39693300	     -0.13383200	      1.55279700	      0.34953000	     -0.18593400	      1.87993500	      0.15477700	     -0.01519400	      1.50428100	      0.05593000	     -0.25472400	      1.89519800	      0.15992400	     -0.07335400	      1.50428700	      0.05552200	     -0.18933100	      1.50950800	      1.03158200	     -0.24312800	      1.59668500	      0.97148500	     -0.17992200	      1.60687400	      0.96034900	     -0.26964500	      1.58623400	      0.97942300	     -0.22038000	      1.63000500	      0.84534700	     -0.20400300	      1.78118800	      0.54597700	     -0.11575900	      1.64189700	      0.41622000	     -0.33091100	      1.69001800	      0.54927400	     -0.08656100	      1.63176600	      0.47642200	     -0.25329500	      1.72995900	      0.47255500	     -0.07057500	      1.61766900	      0.39469700	     -0.22997100	      1.84453300	      0.23967600	      0.04264400	      1.61874700	      0.14871800	     -0.19290200	      1.80906100	      0.28410500	     -0.02734300	      1.56762300	      0.21105400	     -0.21981800	      1.97287000	      0.18605500	     -0.03074300	      1.59409300	      0.03670100	     -0.21762900	      0.00000000	      0.00000000	      0.00000000	      1.93643616	      0.00000000	     -0.09646765	     -2.29141286	    237.89411246	      5.57628357	      1.56849146	      0.00000000	     -0.22342592	      0.00000000	      0.00000000	      0.00000000	      0.00000000	     -0.27482605	      0.00000000	      1.56954086	      0.63035214	     -0.19118857	      1.56328392	      0.64645755	     -0.13948914	      1.58186448	      0.63975549	     -0.25526118	      1.73581076	      0.40147477	     -0.09402756	      1.56313264	      0.34212026	     -0.22652599	      1.89058244	      0.15539810	     -0.04695064	      1.51070964	      0.05516106	     -0.22287539	      1.60282159	      0.71299434	     -0.19656652	      1.58893633	      0.71800280	     -0.11004987	      1.61670673	      0.70798582	     -0.28308317	      1.46196187	      0.70377785	     -0.16986245	      1.47456157	      0.69899100	     -0.25349760	      1.72668064	      0.40340367	     -0.04898404	      1.56639218	      0.33731499	     -0.27417350	      1.74135673	      0.39693296	     -0.13383153	      1.55279744	      0.34953031	     -0.18593362	      1.87993503	      0.15477680	     -0.01519378	      1.50428104	      0.05593029	     -0.25472397	      1.89519835	      0.15992410	     -0.07335375	      1.50428748	      0.05552234	     -0.18933126	      1.50950813	      1.03158247	     -0.24312809	      1.59668529	      0.97148472	     -0.17992187	      1.60687435	      0.96034890	     -0.26964548	      1.58623385	      0.97942346	     -0.22037977	      1.63000536	      0.84534740	     -0.20400295	      1.78118801	      0.54597682	     -0.11575942	      1.64189661	      0.41622007	     -0.33091101	      1.69001830	      0.54927373	     -0.08656102	      1.63176560	      0.47642159	     -0.25329491	      1.72995925	      0.47255459	     -0.07057513	      1.61766934	      0.39469695	     -0.22997095	      1.84453273	      0.23967640	      0.04264438	      1.61874735	      0.14871760	     -0.19290181	      1.80906141	      0.28410494	     -0.02734287	      1.56762278	      0.21105433	     -0.21981777	      1.97287023	      0.18605506	     -0.03074270	      1.59409261	      0.03670141	     -0.21762908
      0.59167000	      1.59907503	      0.69502581	     -0.19018197	     17.12307658	     -4.31109738	     -8.59122621	     19.63847099	     -0.98066446	     -2.36024422	     -2.24284684	     -5.58393976	    -19.99789373	      2.44037847	     -5.25996091	     -6.99211851	      9.34579160	    -29.44045414	     -5.11320809	      0.46315235	      0.00000000	      0.00000000	      0.00000000	      0.00000000	      1.69701395	      0.71062200	     -0.10986208	      1.72992017	      0.70699733	     -0.28113423	      1.60807124	      0.69790963	     -0.18875883	      1.57149306	      0.73866243	     -0.17903636	      1.58728587	      0.73601932	     -0.26282392	      1.55750554	      0.63901808	     -0.13779567	      1.57626903	      0.63593525	     -0.25016034	      1.56688728	      0.63747667	     -0.19397800	      1.77696910	      0.42372787	     -0.04584211	      1.79897336	      0.41862949	     -0.13669450	      1.84901500	      0.56100513	     -0.10162539	      1.74890041	      0.56760890	     -0.07941122	      1.78446369	      0.48812467	     -0.06780047	      1.89681485	      0.16067197	     -0.00537964	      1.92365198	      0.16331231	     -0.06022387	      1.86023532	      0.25180723	      0.04933605	      1.84269341	      0.29362965	     -0.02299791	      1.73358647	      0.39623843	     -0.09661297	      1.89514416	      0.15968992	     -0.05860510	      1.99337948	      0.18661797	     -0.00321158	      1.61564291	      0.31226961	     -0.29719971	      1.61698964	      0.31592163	     -0.20517890	      1.68691052	      0.37399738	     -0.35499984	      1.69028820	      0.44147471	     -0.27916282	      1.67685549	      0.36067947	     -0.25636887	      1.52472355	      0.03301403	     -0.27625468	      1.54186205	      0.02768426	     -0.21343369	      1.65693054	      0.11095107	     -0.22788620	      1.60955463	      0.18021279	     -0.24877552	      1.55742487	      0.33408605	     -0.23168420	      1.50715612	      0.04992578	     -0.21662838	      1.62205584	      0.00854979	     -0.27013428	      1.61081600	      1.01430784	     -0.18218311	      1.62587537	      1.01049423	     -0.26951224	      1.51785149	      1.01586880	     -0.24008456	      1.59781728	      1.01513709	     -0.22165345	      1.70821943	      0.92749406	     -0.20402042	      1.57246500	      0.63030900	     -0.19095700	      1.56648500	      0.64649100	     -0.13937800	      1.58436600	      0.63958300	     -0.25524800	      1.74192500	      0.40345600	     -0.09435100	      1.56432400	      0.34199900	     -0.22662200	      1.90162600	      0.16060300	     -0.04755300	      1.51079900	      0.05517600	     -0.22284200	      1.60559900	      0.71296000	     -0.19682500	      1.59224700	      0.71811800	     -0.11030700	      1.61895100	      0.70780200	     -0.28334300	      1.46485300	      0.70366600	     -0.16902400	      1.47702300	      0.69870100	     -0.25276700	      1.73310700	      0.40544600	     -0.04924800	      1.56711000	      0.33722500	     -0.27430300	      1.74699300	      0.39867200	     -0.13390200	      1.55420300	      0.34933600	     -0.18596800	      1.89123900	      0.15990900	     -0.01571100	      1.50428300	      0.05597300	     -0.25467200	      1.90630100	      0.16537200	     -0.07420300	      1.50428200	      0.05557100	     -0.18923600	      1.51325300	      1.03145900	     -0.24223100	      1.60036100	      0.97096000	     -0.17931600	      1.61035300	      0.95988600	     -0.26903900	      1.58990400	      0.97897200	     -0.21975900	      1.63319300	      0.84473300	     -0.20357100	      1.78547400	      0.54825100	     -0.11689900	      1.64244400	      0.41564500	     -0.33160200	      1.69475500	      0.55085100	     -0.08720200	      1.63324900	      0.47584100	     -0.25395100	      1.73535700	      0.47459800	     -0.07102200	      1.61892600	      0.39418800	     -0.23054900	      1.85468800	      0.24437300	      0.04217300	      1.61918900	      0.14838300	     -0.19320700	      1.81793500	      0.28776600	     -0.02761800	      1.56821900	      0.21094600	     -0.22000200	      1.98374900	      0.19241100	     -0.03181700	      1.59408400	      0.03669800	     -0.21770300	      0.00000000	      0.00000000	      0.00000000	      1.93684290	      0.00000000	     -0.09657652	     -1.66953743	    235.97138909	      5.43868062	      1.56967908	      0.00000000	     -0.22320840	      0.00000000	      0.00000000	      0.00000000	      0.00000000	     -0.32584619	      0.00000000	      1.57246542	      0.63030851	     -0.19095713	      1.56648457	      0.64649129	     -0.13937780	      1.58436644	      0.63958311	     -0.25524771	      1.74192536	      0.40345567	     -0.09435082	      1.56432438	      0.34199947	     -0.22662225	      1.90162563	      0.16060315	     -0.04755286	      1.51079917	      0.05517605	     -0.22284238	      1.60559893	      0.71295989	     -0.19682498	      1.59224677	      0.71811813	     -0.11030662	      1.61895120	      0.70780164	     -0.28334334	      1.46485281	      0.70366633	     -0.16902398	      1.47702265	      0.69870132	     -0.25276738	      1.73310697	      0.40544611	     -0.04924789	      1.56711030	      0.33722532	     -0.27430293	      1.74699318	      0.39867246	     -0.13390169	      1.55420280	      0.34933597	     -0.18596786	      1.89123869	      0.15990856	     -0.01571140	      1.50428259	      0.05597267	     -0.25467238	      1.90630138	      0.16537157	     -0.07420290	      1.50428247	      0.05557090	     -0.18923619	      1.51325345	      1.03145885	     -0.24223092	      1.60036099	      0.97096014	     -0.17931552	      1.61035311	      0.95988613	     -0.26903859	      1.58990395	      0.97897220	     -0.21975891	      1.63319325	      0.84473336	     -0.20357059	      1.78547430	      0.54825121	     -0.11689879	      1.64244413	      0.41564518	     -0.33160150	      1.69475472	      0.55085051	     -0.08720225	      1.63324869	      0.47584143	     -0.25395104	      1.73535657	      0.47459808	     -0.07102211	      1.61892581	      0.39418757	     -0.23054907	      1.85468769	      0.24437287	      0.04217279	      1.61918926	      0.14838323	     -0.19320704	      1.81793475	      0.28776616	     -0.02761780	      1.56821871	      0.21094641	     -0.22000207	      1.98374891	      0.19241118	     -0.03181732	      1.59408414	      0.03669802	     -0.21770296
      0.60000000	      1.60200624	      0.69488760	     -0.19084482	     17.18470774	     -4.35452651	     -8.20426850	     20.15043187	     -0.98298604	     -2.31611542	     -1.68703979	     -5.87973517	    -20.29751003	      2.33850073	     -5.57401412	     -6.99118327	      9.59628481	    -29.76586729	     -4.71570353	      0.16212919	      0.00000000	      0.00000000	      0.00000000	      0.00000000	      1.70043313	      0.71075613	     -0.11117742	      1.73227711	      0.70668527	     -0.28264023	      1.61100946	      0.69778028	     -0.18948541	      1.57446898	      0.73853892	     -0.17964633	      1.58974265	      0.73567736	     -0.26352291	      1.56079503	      0.63899901	     -0.13804978	      1.57886210	      0.63562189	     -0.25052008	      1.56982856	      0.63731045	     -0.19428493	      1.78288909	      0.42618103	     -0.04665871	      1.80430064	      0.42086166	     -0.13763996	      1.85326334	      0.56385667	     -0.10358247	      1.75325035	      0.56963764	     -0.08069159	      1.78963088	      0.49054104	     -0.06896623	      1.90762571	      0.16619818	     -0.00542105	      1.93401551	      0.16897416	     -0.06047524	      1.86973272	      0.25699579	      0.04896112	      1.85089122	      0.29799748	     -0.02351573	      1.73935198	      0.39804902	     -0.09700555	      1.90559309	      0.16482908	     -0.05862536	      2.00389472	      0.19342280	     -0.00419257	      1.61619153	      0.31178712	     -0.29805965	      1.61860838	      0.31541301	     -0.20605968	      1.68707878	      0.37319588	     -0.35666174	      1.69163758	      0.44064046	     -0.28085739	      1.67809159	      0.35990353	     -0.25792430	      1.52422678	      0.03295151	     -0.27612029	      1.54205842	      0.02752906	     -0.21350048	      1.65733802	      0.11026584	     -0.22925587	      1.61004711	      0.17975043	     -0.24959030	      1.55882902	      0.33385950	     -0.23187849	      1.50742149	      0.04993156	     -0.21629406	      1.62163367	      0.00853986	     -0.27124045	      1.61462988	      1.01367425	     -0.18131416	      1.62971982	      1.01013358	     -0.26864950	      1.52170053	      1.01577535	     -0.23925497	      1.60165400	      1.01469593	     -0.22078750	      1.71174094	      0.92660310	     -0.20342723	      1.57542800	      0.63020000	     -0.19078700	      1.56972600	      0.64646100	     -0.13931000	      1.58684100	      0.63934700	     -0.25528300	      1.74778100	      0.40517200	     -0.09464000	      1.56572100	      0.34183300	     -0.22668700	      1.91242600	      0.16566500	     -0.04823500	      1.51089800	      0.05518100	     -0.22277900	      1.60842000	      0.71284400	     -0.19713900	      1.59564800	      0.71815400	     -0.11059700	      1.62119200	      0.70753500	     -0.28368100	      1.46779600	      0.70356700	     -0.16815200	      1.47951800	      0.69839400	     -0.25200100	      1.73928500	      0.40726400	     -0.04948000	      1.56792600	      0.33709000	     -0.27440100	      1.75207700	      0.40005400	     -0.13387400	      1.55581700	      0.34893700	     -0.18616500	      1.90231400	      0.16490000	     -0.01630700	      1.50429700	      0.05601000	     -0.25459100	      1.91712500	      0.17068300	     -0.07518000	      1.50428500	      0.05557400	     -0.18910400	      1.51704500	      1.03126300	     -0.24124600	      1.60412300	      0.97033400	     -0.17874000	      1.61382700	      0.95939100	     -0.26841400	      1.59364000	      0.97849200	     -0.21915000	      1.63644000	      0.84404000	     -0.20325200	      1.78959900	      0.55019300	     -0.11808400	      1.64288600	      0.41503900	     -0.33241100	      1.69929300	      0.55217800	     -0.08763800	      1.63478600	      0.47520200	     -0.25469300	      1.74044900	      0.47626800	     -0.07133500	      1.62028700	      0.39355700	     -0.23133400	      1.86461800	      0.24890800	      0.04163900	      1.61968400	      0.14796200	     -0.19347800	      1.82662600	      0.29124400	     -0.02798600	      1.56903200	      0.21077800	     -0.22015600	      1.99430700	      0.19872600	     -0.03308400	      1.59408200	      0.03669900	     -0.21775700	      0.00000000	      0.00000000	      0.00000000	      1.93724426	      0.00000000	     -0.09666267	     -1.04108131	    235.54096305	      5.27276333	      1.57069238	      0.00000000	     -0.22293533	      0.00000000	      0.00000000	      0.00000000	      0.00000000	     -0.38688379	      0.00000000	      1.57542789	      0.63020039	     -0.19078660	      1.56972611	      0.64646131	     -0.13930953	      1.58684146	      0.63934654	     -0.25528264	      1.74778116	      0.40517250	     -0.09464012	      1.56572104	      0.34183273	     -0.22668703	      1.91242635	      0.16566515	     -0.04823487	      1.51089787	      0.05518122	     -0.22277914	      1.60841966	      0.71284437	     -0.19713932	      1.59564769	      0.71815354	     -0.11059720	      1.62119150	      0.70753515	     -0.28368145	      1.46779597	      0.70356745	     -0.16815194	      1.47951758	      0.69839394	     -0.25200099	      1.73928547	      0.40726373	     -0.04947984	      1.56792629	      0.33709010	     -0.27440122	      1.75207686	      0.40005386	     -0.13387378	      1.55581653	      0.34893742	     -0.18616459	      1.90231419	      0.16489987	     -0.01630670	      1.50429654	      0.05601006	     -0.25459087	      1.91712511	      0.17068264	     -0.07518049	      1.50428534	      0.05557399	     -0.18910384	      1.51704454	      1.03126299	     -0.24124625	      1.60412335	      0.97033381	     -0.17874046	      1.61382663	      0.95939058	     -0.26841432	      1.59364009	      0.97849214	     -0.21914999	      1.63644040	      0.84403986	     -0.20325205	      1.78959858	      0.55019343	     -0.11808403	      1.64288557	      0.41503888	     -0.33241150	      1.69929302	      0.55217767	     -0.08763845	      1.63478565	      0.47520182	     -0.25469264	      1.74044907	      0.47626787	     -0.07133479	      1.62028682	      0.39355743	     -0.23133419	      1.86461842	      0.24890798	      0.04163895	      1.61968422	      0.14796214	     -0.19347848	      1.82662606	      0.29124400	     -0.02798551	      1.56903207	      0.21077825	     -0.22015581	      1.99430656	      0.19872627	     -0.03308447	      1.59408247	      0.03669945	     -0.21775717
